# xmcd
#
# Track frame offsets:
#	150
#	18410
#	35436
#	49518
#	67840
#	81802
#	101991
#	119844
#	134318
#	149212
#	167472
#	184498
#	198580
#	216902
#	230864
#	251053
#	268906
#	283380
#
# Disc length: 3976
#
# Revision: 1
# Processed by: cddbd v1.5.2PL0 Copyright (c) Steve Scherf et al.
# Submitted via: kJams Pro (development) 1.0patch45.4
#
DISCID=280f8612
DTITLE=Various Artist - NSC 3008
DYEAR=1996
DGENRE=Country
TTITLE0=Kenny Chesney - I Lost It
TTITLE1=George Strait - Go On 
TTITLE2=Terri Clark - A Little Gasoline
TTITLE3=Travis Tritt - Best Of Intentions
TTITLE4=Kenny Rogers - He Will She Knows
TTITLE5=Clay Walker - Once In A Lifetime Love
TTITLE6=Yankee Grey - This Time Around
TTITLE7=Clay Davidson - I Can't Lie To Me
TTITLE8=Chad Brock - The Visit
TTITLE9=Kenny Chesney - Vocals - I Lost It
TTITLE10=George Strait - Vocals - Go On
TTITLE11=Terri Clark - Vocals - A Little Gasoline
TTITLE12=Travis Tritt - Vocals - Best Of Intentions
TTITLE13=Kenny Rogers - Vocals - He Will She Knows
TTITLE14=Clay Walker - Vocals - Once In A Lifetime Love
TTITLE15=Yankee Grey - Vocals - This Time Around
TTITLE16=Clay Davidson - Vocals - I Can't Lie To Me
TTITLE17=Chad Brock - Vocals - The Visit
EXTD=
EXTT0=
EXTT1=
EXTT2=
EXTT3=
EXTT4=
EXTT5=
EXTT6=
EXTT7=
EXTT8=
EXTT9=
EXTT10=
EXTT11=
EXTT12=
EXTT13=
EXTT14=
EXTT15=
EXTT16=
EXTT17=
PLAYORDER=
